<?xml version="1.0" encoding="utf-8"?>
<!-- Generator: Adobe Illustrator 24.3.0, SVG Export Plug-In . SVG Version: 6.00 Build 0)  -->
<svg version="1.1" id="Layer_1" xmlns="http://www.w3.org/2000/svg" xmlns:xlink="http://www.w3.org/1999/xlink" x="0px" y="0px"
	 viewBox="0 0 24 24" style="enable-background:new 0 0 24 24;" xml:space="preserve">
<style type="text/css">
	.st0{fill:#F4F9FF;}
	.st1{fill:#EF4B3E;}
	.st2{fill:#754C24;stroke:#FFFFFF;stroke-width:0.75;stroke-miterlimit:10;}
	.st3{stroke:#000000;stroke-width:2.856;stroke-miterlimit:10;}
	.st4{fill:none;stroke:#FFFFFF;stroke-width:2;stroke-miterlimit:10;}
	.st5{fill:#FFFFFF;}
	.st6{fill:#F9F9F9;}
	.st7{fill:none;stroke:#FFFFFF;stroke-width:2.0229;stroke-miterlimit:10;}
	.st8{fill:#FFFFFF;stroke:#FFFFFF;stroke-width:0.5;stroke-miterlimit:10;}
	.st9{fill:none;stroke:#000000;stroke-width:7.6112;stroke-miterlimit:10;}
	.st10{stroke:#FFFFFF;stroke-miterlimit:10;}
	.st11{fill:none;stroke:#000000;stroke-width:6.6078;stroke-miterlimit:10;}
	.st12{stroke:#000000;stroke-width:1.7107;stroke-miterlimit:10;}
	.st13{fill:#FFFFFF;stroke:#EF4B3E;stroke-width:0.5304;stroke-miterlimit:10;}
	.st14{fill:#FFFFFF;stroke:#FFFFFF;stroke-width:0.406;stroke-miterlimit:10;}
	.st15{fill:none;stroke:#FFFFFF;stroke-width:1.0951;stroke-miterlimit:10;}
	.st16{fill:#FFFFFF;stroke:#FFFFFF;stroke-width:0.2707;stroke-miterlimit:10;}
	.st17{fill:#FFFFFF;stroke:#FFFFFF;stroke-width:0.3006;stroke-miterlimit:10;}
	.st18{stroke:#000000;stroke-width:0.25;stroke-miterlimit:10;}
	.st19{fill:#EF4B3E;stroke:#EF4B3E;stroke-width:0.5;stroke-miterlimit:10;}
	.st20{fill:#EF4B3E;stroke:#EF4B3E;stroke-width:0.5497;stroke-miterlimit:10;}
	.st21{fill:#FFFFFF;stroke:#FFFFFF;stroke-width:0.5497;stroke-miterlimit:10;}
	.st22{fill:#898989;}
	.st23{fill:#212529;}
	.st24{fill:#898989;stroke:#898989;stroke-width:0.25;stroke-miterlimit:10;}
	.st25{fill:#898989;stroke:#212529;stroke-width:0.25;stroke-miterlimit:10;}
	.st26{fill:#898989;stroke:#212529;stroke-width:0.1275;stroke-miterlimit:10;}
	.st27{fill:#898989;stroke:#212529;stroke-width:0.0697;stroke-miterlimit:10;}
	.st28{fill:#FF0000;}
	.st29{fill:#FFFF00;}
	.st30{fill:#00FF00;}
	.st31{fill:#00FFFF;}
	.st32{fill:#0000FF;}
	.st33{fill:#FF00FF;}
	.st34{fill:#C1272D;}
	.st35{fill:#F15A24;}
	.st36{fill:#F7931E;}
	.st37{fill:#FCEE21;}
	.st38{fill:#8CC63F;}
	.st39{fill:#006837;}
	.st40{fill:#ED1E79;}
	.st41{fill:#603813;}
	.st42{fill:#FFFFFF;stroke:#000000;stroke-width:0.4185;stroke-miterlimit:10;}
	.st43{fill:#454966;stroke:#454966;stroke-width:0.3101;stroke-miterlimit:10;}
	.st44{fill:#454966;stroke:#454966;stroke-miterlimit:10;}
	.st45{fill:#454966;stroke:#454966;stroke-width:0.75;stroke-miterlimit:10;}
	.st46{fill:#454966;}
	.st47{fill:#454966;stroke:#454966;stroke-width:0.3041;stroke-miterlimit:10;}
	.st48{fill:#202020;}
	.st49{fill:#FFFFFF;stroke:#454966;stroke-width:0.5;stroke-miterlimit:10;}
	.st50{fill:#DDDDDD;}
	.st51{fill:#FE5245;}
	.st52{fill:#FE9C39;}
	.st53{fill:#FFE831;}
	.st54{fill:#7ADFFE;}
	.st55{fill:#32AE49;}
	.st56{fill:none;}
	.st57{fill:#454966;stroke:#454966;stroke-width:0.5;stroke-miterlimit:10;}
	.st58{fill:#454966;stroke:#454966;stroke-width:0.5267;stroke-miterlimit:10;}
	.st59{fill:#454966;stroke:#454966;stroke-width:0.1953;stroke-miterlimit:10;}
	.st60{fill:#454966;stroke:#454966;stroke-width:0.4787;stroke-miterlimit:10;}
	.st61{fill:#454966;stroke:#454966;stroke-width:0.0519;stroke-miterlimit:10;}
	.st62{opacity:0.43;}
	.st63{fill:#454966;stroke:#454966;stroke-width:0.1042;stroke-miterlimit:10;}
	.st64{fill:#454966;stroke:#454966;stroke-width:0.1317;stroke-miterlimit:10;}
	.st65{fill:#454966;stroke:#454966;stroke-width:0.1847;stroke-miterlimit:10;}
	.st66{fill:#454966;stroke:#454966;stroke-width:0.0673;stroke-miterlimit:10;}
</style>
<g>
	<path class="st64" d="M8.96,11.15c-0.33,0-0.66-0.01-0.98,0c-0.23,0.01-0.33-0.08-0.33-0.32c0.01-0.66,0-1.33,0-1.99
		c0-0.12,0-0.23,0.14-0.29c0.12-0.05,0.2,0.03,0.28,0.11C8.25,8.84,8.45,9.01,8.61,9.2c0.13,0.15,0.22,0.12,0.36,0
		c1.23-1.09,2.65-1.34,4.19-0.89c1.46,0.43,2.81,1.91,2.94,3.72c0.15,2.1-1.2,4.04-3.25,4.53c-1.39,0.33-2.66,0.04-3.78-0.88
		c-0.14-0.12-0.29-0.23-0.11-0.44c0.3-0.35,0.41-0.39,0.65-0.19c1.47,1.22,3.59,1.04,4.83-0.4c1.24-1.43,1.09-3.56-0.33-4.84
		c-1.3-1.17-3.28-1.18-4.58-0.02c-0.14,0.13-0.16,0.2-0.01,0.34c0.22,0.19,0.41,0.4,0.61,0.6c0.09,0.08,0.16,0.17,0.1,0.3
		c-0.05,0.12-0.16,0.12-0.27,0.12C9.65,11.15,9.31,11.15,8.96,11.15z"/>
	<path class="st64" d="M12.25,11.17c0,0.34,0.02,0.67-0.01,1.01c-0.01,0.22,0.07,0.34,0.24,0.46c0.3,0.21,0.59,0.44,0.89,0.65
		c0.15,0.11,0.17,0.21,0.06,0.37c-0.31,0.46-0.31,0.46-0.76,0.14c-0.36-0.26-0.73-0.53-1.09-0.79c-0.13-0.09-0.18-0.19-0.17-0.35
		c0.01-0.85,0-1.7,0-2.55c0-0.31,0.03-0.33,0.34-0.34c0.49,0,0.49,0,0.5,0.5C12.25,10.57,12.25,10.87,12.25,11.17z"/>
</g>
</svg>
